# xmcd
#
# Track frame offsets:
# 150
# 20535
# 34701
# 47850
# 65850
# 86950
# 100278
#
# Disc length: 1547 seconds
#
#
# Revision: 0
# Processed by: cddbd v1.5.2PL0 Copyright (c) Steve Scherf et al.
# Submitted via: FreeRIP 2.60 
#
DISCID=60060907
DTITLE=Chicken Train Skifflers - Pluck Me In The Morning
DYEAR=2010
DGENRE=Skiffle
TTITLE0=The Chicken Train Skiffle
TTITLE1=Love Mechanic
TTITLE2=She's No Lady
TTITLE3=The Coca Cola Sign
TTITLE4=Cowboy Norm's Decline
TTITLE5=Black Betty
TTITLE6=Mama Don't
EXTD=
EXTT0=
EXTT1=
EXTT2=
EXTT3=
EXTT4=
EXTT5=
EXTT6=
PLAYORDER=
